<svg width="640" height="436" viewBox="0 0 640 436" fill="none" xmlns="http://www.w3.org/2000/svg">
<path d="M96.0778 354.207C91.4763 371.724 75.3521 382.672 75.3521 382.672C75.3521 382.672 66.6885 365.217 71.29 347.7C75.8915 330.182 92.0157 319.235 92.0157 319.235C92.0157 319.235 100.679 336.689 96.0778 354.207Z" fill="#3F3D56"/>
<path d="M89.0983 350.501C76.2102 363.23 74.7683 382.662 74.7683 382.662C74.7683 382.662 94.2221 381.456 107.11 368.726C119.998 355.997 121.44 336.566 121.44 336.566C121.44 336.566 101.986 337.772 89.0983 350.501Z" fill="#5EC867"/>
<path d="M105.26 377.542H54.8471C49.3174 377.542 44.8347 382.024 44.8347 387.552V397.497C44.8347 403.025 49.3174 407.507 54.8471 407.507H105.26C110.79 407.507 115.273 403.025 115.273 397.497V387.552C115.273 382.024 110.79 377.542 105.26 377.542Z" fill="#5EC867"/>
<g opacity="0.7">
<path opacity="0.7" d="M589.966 358.401V347.604H535.963V397.541C535.963 398.924 536.236 400.292 536.765 401.57C537.294 402.847 538.07 404.007 539.047 404.985C540.025 405.962 541.186 406.738 542.464 407.267C543.741 407.796 545.111 408.068 546.494 408.068H579.435C582.228 408.068 584.906 406.959 586.881 404.985C588.856 403.011 589.966 400.333 589.966 397.541V386.474C593.685 386.467 597.249 384.985 599.876 382.353C602.504 379.722 603.979 376.156 603.979 372.438C603.979 368.72 602.504 365.154 599.876 362.522C597.249 359.891 593.685 358.409 589.966 358.401ZM589.966 381.075V363.8C592.257 363.8 594.455 364.71 596.075 366.33C597.696 367.95 598.606 370.147 598.606 372.438C598.606 374.729 597.696 376.926 596.075 378.545C594.455 380.165 592.257 381.075 589.966 381.075Z" fill="url(#paint0_linear)"/>
</g>
<path d="M588.228 360.092C585.693 360.092 583.214 360.843 581.106 362.251C578.998 363.66 577.354 365.661 576.384 368.003C575.414 370.345 575.16 372.921 575.655 375.407C576.149 377.893 577.37 380.177 579.163 381.969C580.956 383.762 583.24 384.982 585.727 385.477C588.214 385.971 590.791 385.717 593.134 384.747C595.476 383.777 597.479 382.135 598.887 380.027C600.296 377.92 601.048 375.442 601.048 372.907C601.048 369.508 599.697 366.249 597.293 363.845C594.889 361.442 591.628 360.092 588.228 360.092ZM588.228 380.794C586.668 380.794 585.142 380.331 583.845 379.465C582.548 378.598 581.537 377.366 580.939 375.925C580.342 374.484 580.186 372.898 580.491 371.369C580.795 369.839 581.546 368.434 582.65 367.331C583.753 366.228 585.159 365.476 586.689 365.172C588.219 364.868 589.806 365.024 591.247 365.621C592.689 366.218 593.921 367.229 594.788 368.526C595.654 369.823 596.117 371.347 596.117 372.907C596.117 374.999 595.286 377.005 593.806 378.484C592.327 379.963 590.32 380.794 588.228 380.794Z" fill="#5EC867"/>
<path opacity="0.1" d="M588.228 360.092C585.693 360.092 583.214 360.843 581.106 362.251C578.998 363.66 577.354 365.661 576.384 368.003C575.414 370.345 575.16 372.921 575.655 375.407C576.149 377.893 577.37 380.177 579.163 381.969C580.956 383.762 583.24 384.982 585.727 385.477C588.214 385.971 590.791 385.717 593.134 384.747C595.476 383.777 597.479 382.135 598.887 380.027C600.296 377.92 601.048 375.442 601.048 372.907C601.048 369.508 599.697 366.249 597.293 363.845C594.889 361.442 591.628 360.092 588.228 360.092ZM588.228 380.794C586.668 380.794 585.142 380.331 583.845 379.465C582.548 378.598 581.537 377.366 580.939 375.925C580.342 374.484 580.186 372.898 580.491 371.369C580.795 369.839 581.546 368.434 582.65 367.331C583.753 366.228 585.159 365.476 586.689 365.172C588.219 364.868 589.806 365.024 591.247 365.621C592.689 366.218 593.921 367.229 594.788 368.526C595.654 369.823 596.117 371.347 596.117 372.907C596.117 374.999 595.286 377.005 593.806 378.484C592.327 379.963 590.32 380.794 588.228 380.794Z" fill="black"/>
<path d="M538.921 350.233H588.228V399.018C588.228 400.721 587.551 402.354 586.347 403.559C585.142 404.763 583.508 405.439 581.805 405.439H545.345C543.641 405.439 542.007 404.763 540.803 403.559C539.598 402.354 538.921 400.721 538.921 399.018V350.233Z" fill="#5EC867"/>
<path d="M640 405.439H0V427.128H640V405.439Z" fill="#E0E0E0"/>
<g opacity="0.7">
<path opacity="0.7" d="M420.963 260.325C414.104 235.435 375.216 217.26 345.956 213.23C345.96 213.046 345.97 212.864 345.97 212.679V191.373C346.001 191.362 346.033 191.352 346.065 191.341V190.533C356.449 186.672 365.819 180.502 373.468 172.489C381.116 164.475 386.842 154.829 390.212 144.278C392.02 141.009 393.595 137.616 394.923 134.125C398.046 132.988 400.405 127.839 400.405 121.652C400.417 119.535 400.12 117.429 399.524 115.398C399.907 112.247 400.103 109.076 400.109 105.901C400.121 94.8045 397.799 83.8291 393.294 73.6874C388.788 63.5458 382.2 54.4646 373.956 47.0332C374.201 45.7584 374.284 44.4579 374.204 43.1624C373.542 32.9361 362.616 25.9885 352.375 25.5238C355.08 22.4561 356.859 18.6839 357.504 14.6457C358.149 10.6075 357.634 6.46917 356.02 2.71184C349.49 12.2217 336.085 13.2326 324.547 13.3074C329.525 11.38 331.766 4.48388 328.87 0C316.811 16.1583 293.304 19.1503 278.961 33.3215C275.836 36.4212 273.218 39.9918 271.2 43.9032C261.879 51.3265 254.354 60.7566 249.184 71.4911C244.015 82.2255 241.334 93.9876 241.343 105.901C241.35 109.047 241.542 112.189 241.918 115.312C241.303 117.369 240.997 119.505 241.009 121.652C241.009 127.867 243.39 133.032 246.535 134.137C247.868 137.641 249.45 141.045 251.267 144.324C254.626 154.814 260.313 164.408 267.905 172.39C275.496 180.372 284.795 186.535 295.105 190.417V212.679C295.105 212.851 295.115 213.02 295.118 213.19C265.747 217.151 226.549 235.47 219.751 260.56C213.88 282.227 207.613 306.023 204.495 319.994C231.222 338.768 287.304 349.791 322.45 349.791C355.843 349.791 410.424 339.842 436.364 322.747C433.554 307.396 427.089 282.556 420.963 260.325Z" fill="url(#paint1_linear)"/>
</g>
<path d="M322.379 343.611C354.592 343.611 407.243 334.013 432.267 317.522C429.557 302.714 423.32 278.751 417.41 257.306C409.884 229.995 362.381 211.062 334.044 211.062H306.737C278.312 211.062 230.74 230.105 223.309 257.533C217.645 278.435 211.6 301.389 208.592 314.866C234.374 332.977 288.474 343.611 322.379 343.611Z" fill="#5EC867"/>
<path d="M320.716 184.893C363.008 184.893 397.294 150.619 397.294 108.339C397.294 66.0596 363.008 31.7852 320.716 31.7852C278.423 31.7852 244.138 66.0596 244.138 108.339C244.138 150.619 278.423 184.893 320.716 184.893Z" fill="#72351C"/>
<path opacity="0.1" d="M296 172.102H345.068V211.344C345.068 217.849 342.483 224.087 337.882 228.687C333.281 233.286 327.041 235.87 320.534 235.87H320.534C314.027 235.87 307.787 233.286 303.186 228.687C298.585 224.087 296 217.849 296 211.344V172.102H296Z" fill="black"/>
<path d="M303.038 170.286H338.03C339.896 170.286 341.686 171.027 343.006 172.346C344.326 173.666 345.068 175.456 345.068 177.322V209.528C345.068 216.032 342.483 222.271 337.882 226.87C333.281 231.47 327.041 234.054 320.534 234.054H320.534C314.027 234.054 307.787 231.47 303.186 226.87C298.585 222.271 296 216.032 296 209.528V177.322C296 175.456 296.742 173.666 298.062 172.346C299.381 171.027 301.172 170.286 303.038 170.286Z" fill="#FDA57D"/>
<path opacity="0.1" d="M296.091 190.624C311.905 196.531 329.312 196.579 345.159 190.76V184.734H296.091V190.624Z" fill="black"/>
<path d="M320.716 193.908C359.558 193.908 391.046 162.43 391.046 123.6C391.046 84.7697 359.558 53.2915 320.716 53.2915C281.873 53.2915 250.385 84.7697 250.385 123.6C250.385 162.43 281.873 193.908 320.716 193.908Z" fill="#FDA57D"/>
<path opacity="0.1" d="M270.619 59.647C270.619 59.647 300.259 119.793 383.871 84.8553L364.405 54.34L329.899 41.957L270.619 59.647Z" fill="black"/>
<path d="M270.619 58.7623C270.619 58.7623 300.259 118.908 383.871 83.9705L364.405 53.4553L329.899 41.0723L270.619 58.7623Z" fill="#72351C"/>
<path d="M270.356 54.6991C272.354 48.5139 275.807 42.8984 280.426 38.3243C294.262 24.6538 316.939 21.7675 328.572 6.18018C331.365 10.5057 329.204 17.158 324.401 19.0173C335.531 18.9452 348.463 17.97 354.762 8.7962C356.319 12.4208 356.816 16.4129 356.194 20.3084C355.571 24.2039 353.856 27.8428 351.246 30.8021C361.125 31.2504 371.665 37.9524 372.303 47.8173C372.729 54.3894 368.607 60.6118 363.204 64.3809C357.802 68.1499 351.266 69.8802 344.832 71.2982C326.053 75.4374 258.102 92.7864 270.356 54.6991Z" fill="#72351C"/>
<path d="M391.044 124.215H389.179L352.903 156.5C317.955 140.136 292.296 156.5 292.296 156.5L254.251 125.542L250.415 126.024C250.935 144.477 258.694 161.985 272.016 174.768C285.339 187.55 303.156 194.582 321.62 194.345C340.085 194.107 357.715 186.62 370.704 173.498C383.693 160.377 390.999 142.675 391.044 124.215ZM320.609 168.883C306.927 168.883 295.835 166.11 295.835 162.691C295.835 159.272 306.927 156.5 320.609 156.5C334.291 156.5 345.383 159.272 345.383 162.691C345.383 166.111 334.291 168.883 320.609 168.883Z" fill="#72351C"/>
<path d="M250.357 135.796C253.971 135.796 256.9 130.306 256.9 123.533C256.9 116.76 253.971 111.27 250.357 111.27C246.744 111.27 243.815 116.76 243.815 123.533C243.815 130.306 246.744 135.796 250.357 135.796Z" fill="#FDA57D"/>
<path d="M391.037 135.796C394.65 135.796 397.579 130.306 397.579 123.533C397.579 116.76 394.65 111.27 391.037 111.27C387.423 111.27 384.494 116.76 384.494 123.533C384.494 130.306 387.423 135.796 391.037 135.796Z" fill="#FDA57D"/>
<g opacity="0.7">
<path opacity="0.7" d="M446.533 248.76H193.467C188.191 248.76 183.914 253.035 183.914 258.31V395.889C183.914 401.164 188.191 405.439 193.467 405.439H446.533C451.809 405.439 456.086 401.164 456.086 395.889V258.31C456.086 253.035 451.809 248.76 446.533 248.76Z" fill="url(#paint2_linear)"/>
</g>
<path d="M433.476 251.651H206.524C196.76 251.651 188.844 259.563 188.844 269.324V387.766C188.844 397.527 196.76 405.439 206.524 405.439H433.476C443.24 405.439 451.156 397.527 451.156 387.766V269.324C451.156 259.563 443.24 251.651 433.476 251.651Z" fill="#535461"/>
<path d="M320 337.417C324.902 337.417 328.875 333.445 328.875 328.545C328.875 323.645 324.902 319.673 320 319.673C315.098 319.673 311.125 323.645 311.125 328.545C311.125 333.445 315.098 337.417 320 337.417Z" fill="white"/>
<path d="M612.881 427.127H27.1187V436H612.881V427.127Z" fill="#E0E0E0"/>
<path opacity="0.1" d="M612.881 427.127H27.1187V430.085H612.881V427.127Z" fill="black"/>
<path opacity="0.1" d="M579.353 350.233V395.828C579.353 398.377 578.34 400.822 576.537 402.624C574.734 404.427 572.288 405.439 569.738 405.439H574.669C577.219 405.439 579.664 404.427 581.467 402.624C583.27 400.822 584.284 398.377 584.284 395.828V350.233H579.353Z" fill="black"/>
<path d="M548.651 313.485C547.82 313.627 546.882 313.852 546.474 314.59C545.827 315.762 546.999 317.084 548.069 317.889C550.045 319.377 552.127 320.839 553.47 322.916C554.814 324.992 555.236 327.891 553.767 329.881C551.85 332.48 547.276 333.039 546.834 336.238C546.55 338.291 548.326 340.044 550.125 341.074C554.566 343.617 560.292 344.296 563.509 348.276C564.84 345.54 567.816 343.959 570.783 343.283C573.75 342.608 576.833 342.658 579.842 342.2C580.813 342.052 581.907 341.756 582.341 340.875C583.182 339.169 580.785 337.123 581.612 335.41C582.242 334.106 584.091 334.207 585.442 333.685C587.641 332.835 588.548 330.006 587.924 327.733C587.3 325.46 585.537 323.683 583.683 322.227C578.686 318.302 572.678 315.994 566.601 314.333C563.775 313.561 560.457 312.35 557.522 312.233C554.688 312.12 551.456 313.005 548.651 313.485Z" fill="#EEEEEE"/>
<defs>
<linearGradient id="paint0_linear" x1="569.985" y1="408.068" x2="569.985" y2="347.604" gradientUnits="userSpaceOnUse">
<stop stop-color="#808080" stop-opacity="0.25"/>
<stop offset="0.53514" stop-color="#808080" stop-opacity="0.12"/>
<stop offset="1" stop-color="#808080" stop-opacity="0.1"/>
</linearGradient>
<linearGradient id="paint1_linear" x1="139477" y1="227401" x2="139477" y2="41625.2" gradientUnits="userSpaceOnUse">
<stop stop-color="#808080" stop-opacity="0.25"/>
<stop offset="0.53514" stop-color="#808080" stop-opacity="0.12"/>
<stop offset="1" stop-color="#808080" stop-opacity="0.1"/>
</linearGradient>
<linearGradient id="paint2_linear" x1="132384" y1="96700.4" x2="132384" y2="59427.3" gradientUnits="userSpaceOnUse">
<stop stop-color="#808080" stop-opacity="0.25"/>
<stop offset="0.53514" stop-color="#808080" stop-opacity="0.12"/>
<stop offset="1" stop-color="#808080" stop-opacity="0.1"/>
</linearGradient>
</defs>
</svg>
