<svg width="588" height="550" viewBox="0 0 588 550" fill="none" xmlns="http://www.w3.org/2000/svg">
<g clip-path="url(#clip0)">
<path d="M468.321 390.768C468.321 390.768 541.064 394.529 524.121 417.432C507.177 440.334 462.656 403.997 462.656 403.997L468.321 390.768Z" fill="#FFB8B8"/>
<path d="M334.267 172.624L349.074 176.326C349.074 176.326 357.711 202.241 363.88 225.688C370.049 249.135 382.388 319.475 382.388 319.475L478.047 386.525L466.638 412.051L339.203 361.82L310.823 250.369L334.267 172.624Z" fill="#5EC867"/>
<path opacity="0.2" d="M348.198 218.624L342.68 334.205L354.195 368.568L320.462 343.827L348.198 218.624Z" fill="black"/>
<path d="M368.199 423.753C368.199 423.753 384.239 466.944 386.707 496.561C389.175 526.178 391.643 549.625 391.643 549.625H316.376L301.569 527.412V549.625H213.964C213.964 549.625 189.286 469.412 199.157 459.54C209.028 449.668 302.803 407.71 302.803 407.71L368.199 423.753Z" fill="#2F2E41"/>
<path d="M511.616 548.5H76.0864V550H511.616V548.5Z" fill="#3F3D56"/>
<path d="M273.807 125.73C299.702 125.73 320.695 104.735 320.695 78.8366C320.695 52.9379 299.702 31.9429 273.807 31.9429C247.912 31.9429 226.92 52.9379 226.92 78.8366C226.92 104.735 247.912 125.73 273.807 125.73Z" fill="#FFB8B8"/>
<path d="M238.025 98.5815L234.323 152.88L281.21 215.816L304.654 156.582C304.654 156.582 283.678 143.007 296.017 114.624L238.025 98.5815Z" fill="#FFB8B8"/>
<path d="M374.982 434.241C374.982 445.352 344.135 462.625 344.135 462.625V468.795L331.797 474.966L304.653 420.671L297.254 479.899C297.254 479.899 242.959 488.543 225.688 479.899C208.409 471.262 199.774 474.966 175.096 466.329C150.419 457.692 184.969 341.688 184.969 341.688L160.291 162.752L214.204 135.792L217.045 134.368L224.459 133.003L235.823 130.904L273.806 156.582L276.865 172.626L278.746 182.5L288.611 171.389L296.062 146.88L349.075 176.329L334.27 294.793C334.27 294.793 374.982 423.137 374.982 434.241Z" fill="#5EC867"/>
<path d="M193.605 472.497C193.605 472.497 250.363 518.157 223.218 526.795C196.073 535.434 181.266 479.902 181.266 479.902L193.605 472.497Z" fill="#FFB8B8"/>
<path d="M172.629 165.22L160.29 162.752C160.29 162.752 141.782 172.624 140.548 192.369C139.314 212.114 123.274 350.327 123.274 350.327L175.097 489.774L217.049 473.731L176.331 342.923L207.177 229.39L172.629 165.22Z" fill="#5EC867"/>
<path d="M279.234 202.879C281.718 202.879 283.731 200.865 283.731 198.381C283.731 195.897 281.718 193.883 279.234 193.883C276.75 193.883 274.736 195.897 274.736 198.381C274.736 200.865 276.75 202.879 279.234 202.879Z" fill="#2F2E41"/>
<path d="M279.234 232.118C281.718 232.118 283.731 230.104 283.731 227.62C283.731 225.136 281.718 223.122 279.234 223.122C276.75 223.122 274.736 225.136 274.736 227.62C274.736 230.104 276.75 232.118 279.234 232.118Z" fill="#2F2E41"/>
<path d="M304.72 424.797C307.204 424.797 309.218 422.783 309.218 420.298C309.218 417.814 307.204 415.8 304.72 415.8C302.236 415.8 300.223 417.814 300.223 420.298C300.223 422.783 302.236 424.797 304.72 424.797Z" fill="#2F2E41"/>
<path d="M234.221 30.7963L225.553 27.3259C225.553 27.3259 243.676 7.37109 268.89 9.10633L261.799 1.29789C261.799 1.29789 279.133 -5.64284 294.892 12.5767C303.177 22.1543 312.761 33.4123 318.737 46.0942H328.019L324.145 54.6255L337.704 63.1569L323.787 61.6245C324.616 66.2963 324.743 71.0658 324.164 75.7753C323.567 80.4862 321.164 84.7808 317.461 87.7528C317.461 87.7528 306.711 65.5001 306.711 62.0297V70.7057C306.711 70.7057 298.044 62.8974 298.044 57.6918L293.316 63.765H261.799L266.526 55.9566L248.404 58.5594L255.495 49.0158L227.436 88.4248C227.436 88.4248 211.37 43.8102 234.221 30.7963Z" fill="#2F2E41"/>
<path d="M513.038 362.524C554.438 362.524 588 328.958 588 287.552C588 246.146 554.438 212.58 513.038 212.58C471.638 212.58 438.076 246.146 438.076 287.552C438.076 328.958 471.638 362.524 513.038 362.524Z" fill="#3F3D56"/>
<path d="M509.949 325.598V316.214C505.206 316.122 500.299 314.449 497.437 312.126L499.4 305.901C502.801 308.45 506.926 309.849 511.176 309.896C516.982 309.896 520.907 306.086 520.907 300.79C520.907 295.68 517.718 292.521 511.666 289.733C503.325 286.017 498.173 281.743 498.173 273.659C498.173 265.947 502.998 260.094 510.522 258.7V249.316H515.592V258.329C519.372 258.38 523.06 259.508 526.223 261.58L524.178 267.713C521.145 265.636 517.55 264.534 513.874 264.554C507.578 264.554 505.206 268.828 505.206 272.544C505.206 277.376 508.232 279.792 515.347 283.137C523.769 287.039 528.022 291.871 528.022 300.14C528.022 307.48 523.524 314.356 515.101 315.935V325.598H509.949Z" fill="#5EC867"/>
<path opacity="0.2" d="M187.409 378.511L217.39 472.176L193.402 374.713L187.409 378.511Z" fill="black"/>
<path d="M34.5524 195.529H15.522C14.6925 195.529 13.8974 195.199 13.3109 194.612C12.7244 194.025 12.3945 193.23 12.3936 192.401V165.041C12.3945 164.211 12.7244 163.416 13.3109 162.83C13.8974 162.243 14.6925 161.913 15.522 161.912H34.5524C35.3818 161.913 36.177 162.243 36.7635 162.83C37.35 163.416 37.6799 164.211 37.6808 165.041V192.401C37.6799 193.23 37.35 194.025 36.7635 194.612C36.177 195.199 35.3818 195.529 34.5524 195.529ZM15.522 163.412C15.09 163.412 14.676 163.584 14.3705 163.889C14.0651 164.195 13.8933 164.609 13.8928 165.041V192.401C13.8933 192.833 14.0651 193.247 14.3705 193.552C14.676 193.858 15.09 194.029 15.522 194.03H34.5524C34.9843 194.029 35.3984 193.858 35.7038 193.552C36.0092 193.247 36.181 192.833 36.1815 192.401V165.041C36.181 164.609 36.0092 164.195 35.7038 163.889C35.3984 163.584 34.9843 163.412 34.5524 163.412H15.522Z" fill="#3F3D56"/>
<path d="M69.3121 195.53H52.1265C51.0525 195.529 50.0229 195.101 49.2635 194.342C48.5041 193.582 48.0769 192.553 48.0757 191.478V136.225C48.0769 135.151 48.5041 134.121 49.2635 133.361C50.0229 132.602 51.0525 132.175 52.1265 132.173H69.3121C70.3861 132.175 71.4157 132.602 72.1751 133.361C72.9345 134.121 73.3616 135.151 73.3629 136.225V191.479C73.3616 192.553 72.9345 193.582 72.1751 194.342C71.4157 195.101 70.3861 195.529 69.3121 195.53ZM52.1265 133.673C51.45 133.674 50.8014 133.943 50.3231 134.421C49.8447 134.899 49.5757 135.548 49.5749 136.225V191.478C49.5757 192.155 49.8447 192.804 50.3231 193.282C50.8014 193.761 51.45 194.03 52.1265 194.03H69.3121C69.9886 194.03 70.6372 193.761 71.1155 193.282C71.5939 192.804 71.8629 192.155 71.8637 191.478V136.225C71.8629 135.548 71.5939 134.899 71.1155 134.421C70.6372 133.943 69.9886 133.674 69.3121 133.673L52.1265 133.673Z" fill="#3F3D56"/>
<path d="M104.33 195.53H88.472C87.2221 195.528 86.0238 195.031 85.14 194.147C84.2561 193.263 83.759 192.065 83.7576 190.815V109.529C83.759 108.278 84.2561 107.08 85.14 106.196C86.0238 105.312 87.2221 104.815 88.472 104.813H104.33C105.58 104.815 106.779 105.312 107.662 106.196C108.546 107.08 109.043 108.278 109.045 109.529V190.815C109.043 192.065 108.546 193.263 107.662 194.147C106.779 195.031 105.58 195.528 104.33 195.53ZM88.472 106.313C87.6196 106.314 86.8023 106.653 86.1996 107.256C85.5968 107.859 85.2578 108.676 85.2568 109.529V190.815C85.2578 191.667 85.5968 192.484 86.1996 193.087C86.8023 193.69 87.6196 194.029 88.472 194.03H104.33C105.183 194.029 106 193.69 106.603 193.087C107.206 192.484 107.545 191.667 107.546 190.815V109.529C107.545 108.676 107.206 107.859 106.603 107.256C106 106.653 105.183 106.314 104.33 106.313H88.472Z" fill="#3F3D56"/>
<path d="M32.1736 167.123H17.9009V190.319H32.1736V167.123Z" fill="#5EC867"/>
<path d="M67.8555 137.681H53.5828V190.319H67.8555V137.681Z" fill="#5EC867"/>
<path d="M103.537 110.321H89.2646V190.319H103.537V110.321Z" fill="#5EC867"/>
<path d="M541.975 109.312H442.275C442.177 109.312 442.08 109.292 441.989 109.255C441.898 109.217 441.815 109.162 441.745 109.092C441.676 109.023 441.621 108.94 441.583 108.849C441.545 108.758 441.526 108.661 441.526 108.562V7.34982C441.526 7.15098 441.605 6.96029 441.745 6.81969C441.886 6.67909 442.077 6.6001 442.275 6.6001C442.474 6.6001 442.665 6.67909 442.806 6.81969C442.946 6.96029 443.025 7.15098 443.025 7.34982V107.812H541.975C542.174 107.812 542.364 107.891 542.505 108.032C542.646 108.173 542.725 108.363 542.725 108.562C542.725 108.761 542.646 108.952 542.505 109.092C542.364 109.233 542.174 109.312 541.975 109.312Z" fill="#3F3D56"/>
<path d="M119.19 206.026H0.74962C0.651171 206.026 0.553684 206.007 0.462725 205.969C0.371765 205.931 0.289115 205.876 0.219501 205.806C0.149887 205.737 0.0946713 205.654 0.0570085 205.563C0.0193456 205.472 -2.55813e-05 205.375 2.53537e-08 205.276V87.57C2.53537e-08 87.3712 0.078977 87.1805 0.219558 87.0399C0.360139 86.8993 0.550808 86.8203 0.74962 86.8203C0.948431 86.8203 1.1391 86.8993 1.27968 87.0399C1.42026 87.1805 1.49924 87.3712 1.49924 87.57V204.526H119.19C119.388 204.526 119.579 204.605 119.72 204.746C119.86 204.887 119.939 205.077 119.939 205.276C119.939 205.475 119.86 205.666 119.72 205.806C119.579 205.947 119.388 206.026 119.19 206.026Z" fill="#3F3D56"/>
<path d="M476.682 99.9157H457.652C456.822 99.9148 456.027 99.585 455.44 98.9984C454.854 98.4118 454.524 97.6164 454.523 96.7868V69.4272C454.524 68.5976 454.854 67.8022 455.44 67.2157C456.027 66.6291 456.822 66.2992 457.652 66.2983H476.682C477.511 66.2993 478.307 66.6293 478.893 67.2159C479.479 67.8024 479.809 68.5977 479.81 69.4272V96.7869C479.809 97.6164 479.479 98.4116 478.893 98.9982C478.307 99.5847 477.511 99.9147 476.682 99.9157ZM457.652 67.7978C457.22 67.7983 456.806 67.9701 456.5 68.2756C456.195 68.581 456.023 68.9952 456.022 69.4272V96.7869C456.023 97.2189 456.195 97.6331 456.5 97.9385C456.806 98.244 457.22 98.4158 457.652 98.4163H476.682C477.114 98.4158 477.528 98.2439 477.833 97.9384C478.139 97.633 478.31 97.2188 478.311 96.7869V69.4272C478.31 68.9952 478.139 68.5811 477.833 68.2756C477.528 67.9702 477.114 67.7983 476.682 67.7978H457.652Z" fill="#3F3D56"/>
<path d="M515.654 99.9155H498.139C497.108 99.9143 496.121 99.5044 495.392 98.7758C494.664 98.0472 494.254 97.0593 494.253 96.0289V46.4727C494.254 45.4423 494.664 44.4545 495.392 43.7259C496.121 42.9974 497.108 42.5876 498.139 42.5864H515.654C516.685 42.5876 517.672 42.9974 518.401 43.7259C519.129 44.4545 519.539 45.4423 519.54 46.4727V96.0289C519.539 97.0593 519.129 98.0472 518.401 98.7758C517.672 99.5044 516.685 99.9143 515.654 99.9155ZM498.139 44.0859C497.506 44.0865 496.899 44.3382 496.452 44.7857C496.004 45.2332 495.753 45.8399 495.752 46.4727V96.0289C495.753 96.6618 496.004 97.2686 496.452 97.7161C496.899 98.1637 497.506 98.4154 498.139 98.4161H515.654C516.287 98.4154 516.894 98.1637 517.341 97.7161C517.789 97.2686 518.04 96.6618 518.041 96.0289V46.4727C518.04 45.8399 517.789 45.2332 517.341 44.7857C516.894 44.3382 516.287 44.0865 515.654 44.0859H498.139Z" fill="#3F3D56"/>
<path d="M473.961 71.7686H459.688V94.9649H473.961V71.7686Z" fill="#5EC867"/>
<path d="M514.033 48.8105H499.76V93.6916H514.033V48.8105Z" fill="#5EC867"/>
<path d="M467.013 58.3309C470.739 58.3309 473.76 55.31 473.76 51.5834C473.76 47.8569 470.739 44.8359 467.013 44.8359C463.287 44.8359 460.267 47.8569 460.267 51.5834C460.267 55.31 463.287 58.3309 467.013 58.3309Z" fill="#5EC867"/>
<path d="M506.743 32.8402C510.469 32.8402 513.49 29.8192 513.49 26.0927C513.49 22.3662 510.469 19.3452 506.743 19.3452C503.017 19.3452 499.997 22.3662 499.997 26.0927C499.997 29.8192 503.017 32.8402 506.743 32.8402Z" fill="#5EC867"/>
</g>
<defs>
<clipPath id="clip0">
<rect width="588" height="550" fill="white"/>
</clipPath>
</defs>
</svg>
