<svg width="618" height="558" viewBox="0 0 618 558" fill="none" xmlns="http://www.w3.org/2000/svg">
<g clip-path="url(#clip0)">
<path d="M252.626 78.8662H0V221.334H252.626V78.8662Z" fill="#5EC867"/>
<path d="M271.276 208.614H16.9548V64.4497H271.276V208.614ZM18.6503 206.918H269.58V66.1458H18.6503V206.918Z" fill="#3F3D56"/>
<path d="M599.35 14.4165H346.724V156.885H599.35V14.4165Z" fill="#DED9D9"/>
<path d="M618 144.164H363.679V0H618V144.164ZM365.374 142.468H616.304V1.69605H365.374V142.468Z" fill="#3F3D56"/>
<path d="M434.138 558H111.15C110.925 558 110.71 557.911 110.551 557.752C110.392 557.593 110.302 557.377 110.302 557.152C110.302 556.927 110.392 556.711 110.551 556.552C110.71 556.393 110.925 556.304 111.15 556.304H434.138C434.363 556.304 434.578 556.393 434.737 556.552C434.896 556.711 434.986 556.927 434.986 557.152C434.986 557.377 434.896 557.593 434.737 557.752C434.578 557.911 434.363 558 434.138 558Z" fill="#CCCCCC"/>
<path d="M313.35 357.639C313.423 356.106 313.83 354.608 314.545 353.249C315.259 351.891 316.262 350.705 317.484 349.777C318.705 348.848 320.116 348.199 321.615 347.874C323.115 347.55 324.668 347.558 326.164 347.899L340.043 328.333L353.986 333.87L333.998 361.226C333.259 363.702 331.638 365.821 329.442 367.182C327.246 368.542 324.627 369.049 322.081 368.607C319.536 368.165 317.242 366.804 315.632 364.783C314.023 362.761 313.211 360.22 313.35 357.639L313.35 357.639Z" fill="#A0616A"/>
<path d="M328.575 340.812L353.252 299.296L343.198 272.476L356.891 235.949L357.396 236.165C357.727 236.307 365.507 239.78 366.661 252.218L382.396 301.689L340.4 356.189L328.575 340.812Z" fill="#3F3D56"/>
<path d="M194.554 188.184C196.077 188.374 197.539 188.897 198.837 189.714C200.136 190.532 201.24 191.624 202.071 192.914C202.902 194.204 203.44 195.661 203.648 197.182C203.855 198.703 203.726 200.251 203.271 201.716L221.699 217.071L215.102 230.55L189.383 208.5C186.972 207.571 184.985 205.791 183.799 203.495C182.613 201.199 182.31 198.548 182.948 196.044C183.585 193.54 185.119 191.356 187.258 189.908C189.397 188.459 191.993 187.845 194.554 188.184Z" fill="#A0616A"/>
<path d="M210.148 204.669L249.618 232.491L277.126 224.537L312.473 241.018L312.218 241.505C312.051 241.824 307.988 249.315 295.502 249.504L244.98 261.372L193.908 215.274L210.148 204.669Z" fill="#3F3D56"/>
<path d="M282.372 542.988H268.65L262.122 490.042L282.374 490.043L282.372 542.988Z" fill="#A0616A"/>
<path d="M254.806 539.065H285.312V555.733H242.186V551.689C242.186 548.341 243.516 545.13 245.883 542.763C248.249 540.395 251.459 539.065 254.806 539.065Z" fill="#2F2E41"/>
<path d="M337.216 542.988H323.494L316.966 490.042L337.218 490.043L337.216 542.988Z" fill="#A0616A"/>
<path d="M309.65 539.065H340.156V555.733H297.03V551.689C297.03 548.341 298.36 545.13 300.726 542.763C303.093 540.395 306.303 539.065 309.65 539.065Z" fill="#2F2E41"/>
<path d="M342.096 349.731L340.977 428.106L339.858 531.113L315.233 528.874L302.922 386.68L287.252 528.874H261.831L259.271 385.56L268.225 354.21L342.096 349.731Z" fill="#2F2E41"/>
<path d="M265.77 354.688L262.019 354.526L279.443 258.506L272.309 229.484C271.938 227.974 272.134 226.38 272.859 225.005C273.584 223.63 274.789 222.569 276.244 222.022L289.08 217.208L293.615 204.732L329.395 208.589L330.275 218.339C334.152 219.583 366.081 230.22 363.878 242.34C361.703 254.302 348.865 291.939 348.213 293.847L345.965 347.823L345.688 347.961C345.355 348.128 320.693 360.258 293.901 360.256C284.466 360.255 274.762 358.75 265.77 354.688Z" fill="#3F3D56"/>
<path d="M332.708 185.149C339.532 172.66 334.944 157.002 322.46 150.175C309.976 143.349 294.323 147.938 287.498 160.427C280.674 172.915 285.262 188.573 297.746 195.4C310.231 202.227 325.883 197.637 332.708 185.149Z" fill="#A0616A"/>
<path d="M330.97 197.734C326.061 202.966 316.943 200.157 316.303 193.01C316.253 192.456 316.257 191.897 316.314 191.343C316.644 188.177 318.473 185.303 318.035 181.96C317.935 181.128 317.626 180.336 317.134 179.657C313.222 174.416 304.038 182.001 300.346 177.257C298.082 174.348 300.743 169.768 299.006 166.516C296.713 162.225 289.921 164.342 285.662 161.992C280.923 159.377 281.206 152.104 284.326 147.68C288.13 142.284 294.8 139.405 301.387 138.99C307.975 138.575 314.516 140.357 320.666 142.754C327.653 145.478 334.582 149.243 338.882 155.389C344.111 162.863 344.615 172.911 341.999 181.651C340.409 186.968 334.979 193.462 330.97 197.734Z" fill="#2F2E41"/>
</g>
<defs>
<clipPath id="clip0">
<rect width="618" height="558" fill="white"/>
</clipPath>
</defs>
</svg>
