<svg width="847" height="442" viewBox="0 0 847 442" fill="none" xmlns="http://www.w3.org/2000/svg">
<path d="M582.213 82.9811C598.37 82.9811 611.469 69.8686 611.469 53.6937C611.469 37.5187 598.37 24.4062 582.213 24.4062C566.055 24.4062 552.957 37.5187 552.957 53.6937C552.957 69.8686 566.055 82.9811 582.213 82.9811Z" fill="#2F2E41"/>
<path d="M677.086 429.792L664.314 429.791L658.237 380.473L677.089 380.474L677.086 429.792Z" fill="#FFB8B8"/>
<path d="M655.19 426.138H679.823V441.664H639.681C639.681 439.625 640.082 437.606 640.861 435.722C641.641 433.839 642.783 432.127 644.223 430.685C645.663 429.244 647.373 428.1 649.255 427.32C651.137 426.54 653.153 426.138 655.19 426.138Z" fill="#2F2E41"/>
<path d="M546.794 428.118L534.462 424.789L541.419 375.588L559.619 380.501L546.794 428.118Z" fill="#FFB8B8"/>
<path d="M526.603 418.885L550.387 425.304L546.349 440.295L507.591 429.834C508.662 425.858 511.267 422.471 514.832 420.418C518.398 418.364 522.632 417.813 526.603 418.885Z" fill="#2F2E41"/>
<path d="M570.998 201.595L532.965 417.345L552.469 421.25L613.907 268.956L659.741 420.274L683.146 417.345C683.146 417.345 672.419 200.619 638.287 182.07L570.998 201.595Z" fill="#2F2E41"/>
<path d="M510.681 278.776C512.052 278.093 513.257 277.117 514.211 275.917C515.165 274.718 515.844 273.323 516.201 271.832C516.558 270.341 516.585 268.79 516.278 267.288C515.972 265.786 515.34 264.369 514.427 263.138L535.403 232.347L516.059 232.046L499.106 261.332C497.141 263.004 495.857 265.339 495.498 267.895C495.138 270.451 495.727 273.051 497.154 275.201C498.581 277.351 500.746 278.902 503.239 279.561C505.732 280.22 508.38 279.941 510.681 278.776Z" fill="#FFB8B8"/>
<path d="M649.16 240.702C650.531 240.019 651.736 239.043 652.69 237.844C653.644 236.644 654.323 235.25 654.68 233.759C655.038 232.268 655.064 230.716 654.757 229.214C654.451 227.712 653.819 226.295 652.907 225.064L673.882 194.273L654.538 193.973L637.585 223.258C635.62 224.93 634.336 227.265 633.977 229.821C633.617 232.377 634.206 234.977 635.633 237.127C637.06 239.277 639.225 240.829 641.718 241.488C644.211 242.146 646.859 241.867 649.16 240.702V240.702Z" fill="#FFB8B8"/>
<path d="M582.958 88.7794C597.09 88.7794 608.546 77.311 608.546 63.1639C608.546 49.0168 597.09 37.5483 582.958 37.5483C568.826 37.5483 557.37 49.0168 557.37 63.1639C557.37 77.311 568.826 88.7794 582.958 88.7794Z" fill="#FFB8B8"/>
<path d="M638.287 102.994C637.312 99.0891 620.733 100.065 620.733 100.065C620.733 100.065 602.065 95.769 602.242 96.3062C586.511 95.094 567.321 101.006 564.526 101.903C558.808 103.482 547.883 108.313 540.004 111.866C538.907 112.361 538.05 113.269 537.618 114.393C537.187 115.517 537.217 116.766 537.7 117.869L561.733 172.796L565.147 208.429L644.138 184.023C624.634 176.213 639.262 106.899 638.287 102.994Z" fill="#65D85A"/>
<path d="M631.461 103.97L637.944 102.34L673.394 172.308L675.345 212.334L652.915 194.762V179.142L629.511 148.878L631.461 103.97Z" fill="#65D85A"/>
<path d="M546.13 109.34L538.623 112.68C538.232 112.854 537.89 113.121 537.627 113.459C537.363 113.796 537.187 114.193 537.113 114.615L522.237 199.643L507.609 242.598L527.114 252.36L549.543 198.666L557.345 159.617L546.13 109.34Z" fill="#65D85A"/>
<path d="M556.124 51.0887C561.317 49.3816 566.796 52.0578 571.869 54.0951C576.869 56.103 582.211 57.5499 587.589 57.2336C592.967 56.9173 598.406 54.6437 601.657 50.3436C604.909 46.0436 605.481 39.599 602.262 35.2742C600.144 32.4272 596.763 30.8028 593.378 29.745C586.144 27.485 578.049 27.4069 571.173 30.5954C564.298 33.7838 558.906 40.5196 558.34 48.0839" fill="#2F2E41"/>
<path d="M581.434 30.6846C579.689 18.8619 586.159 6.5866 594.988 2.18311C603.817 -2.22038 614.176 0.377274 622.13 6.93462C630.084 13.492 635.883 23.5686 640.198 34.2802C644.514 44.9918 647.502 56.4647 651.019 67.636C654.142 77.5576 657.808 87.4851 663.739 95.0732C669.67 102.661 678.295 107.599 686.56 105.514C679.77 114.653 667.279 113.071 659.53 105.254C651.78 97.4367 647.752 85.2187 644.581 73.3257C641.41 61.4326 638.651 48.9887 632.516 39.133C621.603 21.5998 600.187 16.3322 584.893 27.4194" fill="#2F2E41"/>
<path d="M444.378 239.783H74.7156C71.7556 239.78 68.9178 238.601 66.8248 236.506C64.7318 234.411 63.5545 231.57 63.5513 228.607V140.438C63.5545 137.475 64.7318 134.634 66.8248 132.539C68.9178 130.444 71.7556 129.265 74.7156 129.262H444.378C447.338 129.265 450.176 130.444 452.269 132.539C454.362 134.634 455.539 137.475 455.543 140.438V228.607C455.539 231.57 454.362 234.411 452.269 236.506C450.176 238.601 447.338 239.78 444.378 239.783ZM74.7156 131.746C72.4135 131.749 70.2064 132.665 68.5786 134.295C66.9508 135.925 66.035 138.134 66.0322 140.438V228.607C66.035 230.911 66.9508 233.121 68.5786 234.75C70.2064 236.38 72.4135 237.297 74.7156 237.299H444.378C446.68 237.297 448.887 236.38 450.515 234.75C452.143 233.121 453.059 230.911 453.062 228.607V140.438C453.059 138.134 452.143 135.925 450.515 134.295C448.887 132.665 446.68 131.749 444.378 131.746H74.7156Z" fill="#3F3D56"/>
<path d="M426.391 221.156H92.7021C92.5389 221.156 92.3772 221.125 92.2263 221.062C92.0754 221 91.9382 220.909 91.8226 220.794C91.707 220.678 91.6154 220.541 91.5528 220.39C91.4902 220.239 91.458 220.078 91.458 219.914C91.458 219.751 91.4902 219.589 91.5528 219.438C91.6154 219.287 91.707 219.15 91.8226 219.035C91.9382 218.919 92.0754 218.828 92.2263 218.766C92.3772 218.704 92.5389 218.672 92.7021 218.672H426.391C426.554 218.672 426.716 218.704 426.867 218.766C427.018 218.828 427.155 218.919 427.27 219.035C427.386 219.15 427.478 219.287 427.54 219.438C427.603 219.589 427.635 219.751 427.635 219.914C427.635 220.078 427.603 220.239 427.54 220.39C427.478 220.541 427.386 220.678 427.27 220.794C427.155 220.909 427.018 221 426.867 221.062C426.716 221.125 426.554 221.156 426.391 221.156Z" fill="#E6E6E6"/>
<path d="M128.056 180.176H100.765C100.437 180.177 100.122 180.309 99.8904 180.541C99.6585 180.774 99.5283 181.089 99.5283 181.418C99.5283 181.747 99.6585 182.062 99.8904 182.295C100.122 182.528 100.437 182.659 100.765 182.66H113.17V204.618C113.148 206.21 113.733 207.75 114.806 208.924C115.879 210.099 117.359 210.82 118.945 210.94C119.022 210.944 119.102 210.945 119.183 210.945C120.159 210.927 121.115 210.671 121.969 210.2C122.823 209.729 123.55 209.056 124.086 208.241C124.283 207.977 124.367 207.646 124.32 207.321C124.274 206.995 124.1 206.701 123.837 206.504C123.574 206.307 123.243 206.222 122.918 206.268C122.593 206.315 122.299 206.488 122.102 206.751C121.786 207.278 121.338 207.712 120.802 208.011C120.267 208.311 119.662 208.465 119.049 208.459C118.101 208.371 117.222 207.925 116.591 207.211C115.96 206.498 115.624 205.571 115.651 204.618V182.66H128.056C128.219 182.66 128.381 182.629 128.532 182.566C128.683 182.504 128.82 182.413 128.935 182.297C129.051 182.182 129.143 182.045 129.205 181.894C129.268 181.743 129.3 181.581 129.3 181.418C129.3 181.255 129.268 181.093 129.205 180.942C129.143 180.791 129.051 180.654 128.935 180.539C128.82 180.423 128.683 180.332 128.532 180.27C128.381 180.208 128.219 180.176 128.056 180.176L128.056 180.176Z" fill="#65D85A"/>
<path d="M221.092 288.213C226.573 288.213 231.016 283.766 231.016 278.279C231.016 272.792 226.573 268.344 221.092 268.344C215.611 268.344 211.168 272.792 211.168 278.279C211.168 283.766 215.611 288.213 221.092 288.213Z" fill="#E6E6E6"/>
<path d="M259.547 288.213C265.028 288.213 269.471 283.766 269.471 278.279C269.471 272.792 265.028 268.344 259.547 268.344C254.066 268.344 249.623 272.792 249.623 278.279C249.623 283.766 254.066 288.213 259.547 288.213Z" fill="#65D85A"/>
<path d="M298.001 288.213C303.482 288.213 307.925 283.766 307.925 278.279C307.925 272.792 303.482 268.344 298.001 268.344C292.521 268.344 288.078 272.792 288.078 278.279C288.078 283.766 292.521 288.213 298.001 288.213Z" fill="#E6E6E6"/>
<path d="M133.848 210.019C134.253 210.005 134.637 209.834 134.918 209.542C135.2 209.25 135.357 208.86 135.357 208.455C135.357 208.049 135.2 207.659 134.918 207.367C134.637 207.075 134.253 206.904 133.848 206.89C133.443 206.904 133.059 207.075 132.777 207.367C132.496 207.659 132.338 208.049 132.338 208.455C132.338 208.86 132.496 209.25 132.777 209.542C133.059 209.834 133.443 210.005 133.848 210.019Z" fill="#3F3D56"/>
<path d="M143.772 210.019C144.177 210.005 144.561 209.834 144.842 209.542C145.124 209.25 145.281 208.86 145.281 208.455C145.281 208.049 145.124 207.659 144.842 207.367C144.561 207.075 144.177 206.904 143.772 206.89C143.367 206.904 142.983 207.075 142.701 207.367C142.42 207.659 142.262 208.049 142.262 208.455C142.262 208.86 142.42 209.25 142.701 209.542C142.983 209.834 143.367 210.005 143.772 210.019Z" fill="#3F3D56"/>
<path d="M153.696 210.019C154.101 210.005 154.485 209.834 154.767 209.542C155.048 209.25 155.206 208.86 155.206 208.455C155.206 208.049 155.048 207.659 154.767 207.367C154.485 207.075 154.101 206.904 153.696 206.89C153.291 206.904 152.907 207.075 152.626 207.367C152.344 207.659 152.187 208.049 152.187 208.455C152.187 208.86 152.344 209.25 152.626 209.542C152.907 209.834 153.291 210.005 153.696 210.019Z" fill="#3F3D56"/>
</svg>
