<svg width="654" height="527" viewBox="0 0 654 527" fill="none" xmlns="http://www.w3.org/2000/svg">
<g clip-path="url(#clip0)">
<path d="M330.884 527C509.336 527 654 515.696 654 501.752C654 487.808 509.336 476.504 330.884 476.504C152.431 476.504 7.76721 487.808 7.76721 501.752C7.76721 515.696 152.431 527 330.884 527Z" fill="#3F3D56"/>
<path d="M605.353 454.849L608.382 477.061L587.182 479.08L590.211 451.82L605.353 454.849Z" fill="#A0616A"/>
<path d="M505.414 149.934C505.414 149.934 507.433 177.194 507.433 178.204C507.433 179.214 493.3 248.88 493.3 248.88C493.3 248.88 473.111 287.246 493.3 286.237C513.49 285.227 507.433 249.889 507.433 249.889L528.632 191.329L519.547 149.934L505.414 149.934Z" fill="#A0616A"/>
<path d="M538.727 454.849L535.699 477.061L556.898 479.08L553.87 451.82L538.727 454.849Z" fill="#A0616A"/>
<path d="M515.509 246.86L510.462 253.928C510.462 253.928 507.433 284.217 510.462 294.314C513.49 304.411 519.547 350.855 519.547 353.883C519.547 356.912 520.556 358.932 519.547 359.941C518.537 360.951 515.509 360.951 517.528 362.97C519.547 364.99 519.547 371.048 519.547 371.048V376.096L532.67 450.81C532.67 450.81 524.594 459.897 530.651 459.897C536.708 459.897 558.917 459.897 557.907 449.8L555.888 448.791C555.888 448.791 552.86 382.154 553.869 379.125C554.879 376.096 553.869 370.038 553.869 370.038C553.869 370.038 551.85 367.009 553.869 365.999C555.888 364.99 555.888 356.912 555.888 356.912L564.974 295.324C564.974 295.324 573.049 336.719 578.097 340.758C583.144 344.797 582.135 354.893 582.135 354.893L586.173 443.743C586.173 443.743 582.135 453.839 586.173 455.858C590.211 457.878 607.372 464.945 608.381 454.849C609.391 444.752 614.438 356.912 614.438 352.874C614.438 348.835 613.429 346.816 614.438 343.787C615.448 340.758 613.429 340.758 614.438 340.758C615.448 340.758 612.419 337.729 612.419 335.71V286.237C612.419 286.237 613.429 276.14 614.438 274.121C615.448 272.102 613.429 270.082 614.438 267.053C615.448 264.024 612.419 253.928 612.419 253.928L566.993 241.812L515.509 246.86Z" fill="#2F2E41"/>
<path d="M550.841 473.023C550.841 473.023 555.888 467.974 548.822 467.974C544.285 468.067 539.817 469.098 535.699 471.003L530.651 489.177C530.651 489.177 509.957 505.836 533.175 503.817C556.393 501.798 552.86 503.312 552.86 503.312C552.86 503.312 559.926 501.293 560.936 499.274C561.945 497.254 558.917 467.974 558.917 467.974C558.917 467.974 555.888 476.052 550.841 473.023Z" fill="#2F2E41"/>
<path d="M594.249 473.022C594.249 473.022 589.201 467.974 596.268 467.974C600.804 468.067 605.272 469.098 609.391 471.003L614.438 489.177C614.438 489.177 635.133 505.836 611.914 503.817C588.696 501.798 589.201 503.312 589.201 503.312C589.201 503.312 582.135 501.293 581.125 499.273C580.116 497.254 586.173 467.974 586.173 467.974C586.173 467.974 589.201 476.051 594.249 473.022Z" fill="#2F2E41"/>
<path d="M528.632 70.1709C543.128 70.1709 554.879 58.4179 554.879 43.9199C554.879 29.4219 543.128 17.6689 528.632 17.6689C514.137 17.6689 502.386 29.4219 502.386 43.9199C502.386 58.4179 514.137 70.1709 528.632 70.1709Z" fill="#A0616A"/>
<path d="M519.547 63.1033C519.547 63.1033 523.585 83.2964 523.585 86.3254C523.585 89.3543 540.746 98.4412 540.746 98.4412L559.926 74.2095C559.926 74.2095 547.812 57.0454 547.812 53.0068L519.547 63.1033Z" fill="#A0616A"/>
<path d="M534.689 89.3543C534.689 89.3543 525.891 87.0121 523.224 83.1349C523.224 83.1349 495.319 110.557 495.319 115.605L517.528 154.982C517.528 154.982 517.528 169.117 519.547 170.127C521.566 171.136 519.547 170.127 519.547 174.165C519.547 178.204 513.49 204.455 515.509 208.493C517.528 212.532 519.547 209.503 517.528 215.561C515.509 221.619 510.462 253.928 510.462 253.928C510.462 253.928 528.632 247.87 554.879 257.966C581.125 268.063 612.419 253.928 612.419 253.928C612.419 253.928 604.343 235.754 606.362 229.696C608.381 223.638 601.315 212.532 601.315 212.532L596.268 119.644C596.268 119.644 603.334 78.2482 598.286 76.2288L588.192 72.1902L555.864 68.2163C555.864 68.2163 547.812 88.3447 534.689 89.3543Z" fill="#D0CDE1"/>
<path d="M505.414 108.538L495.319 115.605C495.319 115.605 490.272 130.75 495.319 137.818C500.367 144.885 502.386 154.982 502.386 154.982L522.575 152.962L505.414 108.538Z" fill="#D0CDE1"/>
<path d="M508.593 16.1771L504.04 14.3541C504.04 14.3541 513.56 3.87202 526.804 4.78353L523.079 0.681775C523.079 0.681775 532.185 -2.96415 540.463 6.60645C544.814 11.6375 549.849 17.5513 552.987 24.213H557.863L555.828 28.6945L562.95 33.176L555.64 32.371C556.333 36.24 556.096 40.2181 554.949 43.9775L555.145 47.5197C555.145 47.5197 546.671 34.4069 546.671 32.5839V37.1413C546.671 37.1413 542.118 33.0396 542.118 30.3052L539.635 33.4954L538.393 28.4822L523.079 33.4954L525.563 29.3937L516.043 30.761L519.768 25.7478C519.768 25.7478 509.007 31.6724 508.593 36.6857C508.179 41.6988 502.799 48.0792 502.799 48.0792L500.316 43.5218C500.316 43.5218 496.59 23.0133 508.593 16.1771Z" fill="#2F2E41"/>
<path d="M514.681 219.719H113.533V501.561H514.681V219.719Z" fill="#F2F2F2"/>
<path d="M248.025 327.255H147.301V503.115H248.025V327.255Z" fill="#3F3D56"/>
<path d="M193.065 337.805H165.932V363.102H193.065V337.805Z" fill="#F2F2F2"/>
<path d="M229.394 337.805H202.262V363.102H229.394V337.805Z" fill="#F2F2F2"/>
<path d="M193.065 372.301H165.932V398.518H193.065V372.301Z" fill="#F2F2F2"/>
<path d="M229.394 372.301H202.262V398.518H229.394V372.301Z" fill="#F2F2F2"/>
<path d="M235.216 433.43C238.753 433.43 241.621 430.562 241.621 427.024C241.621 423.487 238.753 420.619 235.216 420.619C231.679 420.619 228.812 423.487 228.812 427.024C228.812 430.562 231.679 433.43 235.216 433.43Z" fill="#5EC867"/>
<path d="M480.912 310.561H281.794V477.686H480.912V310.561Z" fill="#3F3D56"/>
<path d="M556.601 272.78H71.613L103.949 205.161L111.186 190.021L120.654 170.222L127.89 155.082L136.28 137.543H518.39L523.344 155.082L527.623 170.222L533.219 190.021L537.498 205.161L556.601 272.78Z" fill="#3F3D56"/>
<path d="M295.767 379.857H288.78V422.948H295.767V379.857Z" fill="#5EC867"/>
<path d="M295.767 386.262H288.78V391.503H295.767V386.262Z" fill="#F2F2F2"/>
<path d="M295.767 411.302H288.78V416.543H295.767V411.302Z" fill="#F2F2F2"/>
<path d="M316.145 379.857H299.26V422.948H316.145V379.857Z" fill="#5EC867"/>
<path d="M316.145 386.262H299.26V391.503H316.145V386.262Z" fill="#F2F2F2"/>
<path d="M316.145 411.302H299.26V416.543H316.145V411.302Z" fill="#F2F2F2"/>
<path d="M327.207 379.857H320.22V422.948H327.207V379.857Z" fill="#5EC867"/>
<path d="M327.207 386.262H320.22V391.503H327.207V386.262Z" fill="#F2F2F2"/>
<path d="M327.207 411.302H320.22V416.543H327.207V411.302Z" fill="#F2F2F2"/>
<path d="M337.687 379.857H330.7V422.948H337.687V379.857Z" fill="#5EC867"/>
<path d="M337.687 386.262H330.7V391.503H337.687V386.262Z" fill="#F2F2F2"/>
<path d="M337.687 411.302H330.7V416.543H337.687V411.302Z" fill="#F2F2F2"/>
<path d="M344.419 380.009L337.882 382.474L353.078 422.796L359.616 420.331L344.419 380.009Z" fill="#5EC867"/>
<path d="M346.678 386.003L340.141 388.468L341.989 393.372L348.526 390.907L346.678 386.003Z" fill="#F2F2F2"/>
<path d="M355.509 409.433L348.971 411.898L350.819 416.802L357.357 414.337L355.509 409.433Z" fill="#F2F2F2"/>
<path d="M474.508 379.857H457.624V422.948H474.508V379.857Z" fill="#5EC867"/>
<path d="M474.508 386.262H457.624V391.503H474.508V386.262Z" fill="#F2F2F2"/>
<path d="M474.508 411.302H457.624V416.543H474.508V411.302Z" fill="#F2F2F2"/>
<path d="M453.548 379.857H446.561V422.948H453.548V379.857Z" fill="#5EC867"/>
<path d="M453.548 386.262H446.561V391.503H453.548V386.262Z" fill="#F2F2F2"/>
<path d="M453.548 411.302H446.561V416.543H453.548V411.302Z" fill="#F2F2F2"/>
<path d="M443.068 379.857H436.081V422.948H443.068V379.857Z" fill="#5EC867"/>
<path d="M443.068 386.262H436.081V391.503H443.068V386.262Z" fill="#F2F2F2"/>
<path d="M443.068 411.302H436.081V416.543H443.068V411.302Z" fill="#F2F2F2"/>
<path d="M429.349 380.009L414.152 420.331L420.69 422.796L435.887 382.474L429.349 380.009Z" fill="#5EC867"/>
<path d="M427.09 386.003L425.242 390.907L431.779 393.372L433.628 388.468L427.09 386.003Z" fill="#F2F2F2"/>
<path d="M418.259 409.433L416.411 414.337L422.949 416.802L424.797 411.898L418.259 409.433Z" fill="#F2F2F2"/>
<path d="M480.912 422.948H281.794V427.024H480.912V422.948Z" fill="#F2F2F2"/>
<path d="M405.224 379.857H368.544V422.948H405.224V379.857Z" fill="#5EC867"/>
<path d="M396.2 389.174H377.569V397.326H396.2V389.174Z" fill="#F2F2F2"/>
<path d="M383.1 310.561H379.606V347.829H383.1V310.561Z" fill="#F2F2F2"/>
<path d="M381.353 353.652C384.568 353.652 387.175 351.045 387.175 347.829C387.175 344.613 384.568 342.006 381.353 342.006C378.137 342.006 375.531 344.613 375.531 347.829C375.531 351.045 378.137 353.652 381.353 353.652Z" fill="#F2F2F2"/>
<path d="M527.623 170.222H120.654L127.89 155.082H523.344L527.623 170.222Z" fill="#5EC867"/>
<path d="M537.498 205.161H103.949L111.186 190.021H533.219L537.498 205.161Z" fill="#5EC867"/>
<path d="M580.116 117.625C580.116 117.625 574.27 132.659 575.491 147.534C575.714 150.197 576.611 152.76 578.097 154.982L506.48 188.988C506.48 188.988 474.12 192.339 482.196 206.474C490.272 220.609 519.547 199.406 519.547 199.406C519.547 199.406 596.267 188.3 602.324 177.194C608.381 166.088 612.419 119.644 612.419 119.644L580.116 117.625Z" fill="#A0616A"/>
<path d="M583.144 76.229H598.286C598.286 76.229 609.391 78.2483 612.419 98.4414C615.448 118.634 618.476 123.683 615.448 123.683C612.419 123.683 576.078 122.673 576.078 121.663C576.078 120.654 583.144 76.229 583.144 76.229Z" fill="#D0CDE1"/>
<path d="M77.6722 377.844C120.569 377.844 155.344 343.063 155.344 300.158C155.344 257.254 120.569 222.473 77.6722 222.473C34.775 222.473 0 257.254 0 300.158C0 343.063 34.775 377.844 77.6722 377.844Z" fill="#5EC867"/>
<path opacity="0.1" d="M77.6722 366.968C114.564 366.968 144.47 337.056 144.47 300.158C144.47 263.261 114.564 233.349 77.6722 233.349C40.7806 233.349 10.8741 263.261 10.8741 300.158C10.8741 337.056 40.7806 366.968 77.6722 366.968Z" fill="black"/>
<path d="M74.4714 339.582V329.858C69.5568 329.762 64.4726 328.029 61.5071 325.622L63.5405 319.172C67.0648 321.813 71.3387 323.263 75.7424 323.311C81.7587 323.311 85.826 319.364 85.826 313.876C85.826 308.581 82.5212 305.308 76.2509 302.419C67.6078 298.568 62.2696 294.139 62.2696 285.763C62.2696 277.772 67.269 271.707 75.0647 270.263V260.539H80.3182V269.878C84.2356 269.931 88.0566 271.1 91.3338 273.247L89.2152 279.602C86.0721 277.45 82.3476 276.308 78.5387 276.328C72.0144 276.328 69.5568 280.757 69.5568 284.608C69.5568 289.614 72.692 292.117 80.0641 295.584C88.7915 299.627 93.1981 304.634 93.1981 313.202C93.1981 320.808 88.5375 327.933 79.8097 329.569V339.582H74.4714Z" fill="#F2F2F2"/>
<path d="M223.879 249V230.516H230.214C232.304 230.516 233.896 230.935 234.987 231.772C236.079 232.61 236.625 233.859 236.625 235.518C236.625 236.364 236.396 237.126 235.939 237.803C235.482 238.48 234.814 239.005 233.934 239.377C234.932 239.648 235.702 240.16 236.244 240.913C236.794 241.658 237.069 242.555 237.069 243.604C237.069 245.34 236.511 246.673 235.394 247.604C234.285 248.535 232.694 249 230.62 249H223.879ZM227.091 240.659V246.436H230.658C231.665 246.436 232.452 246.186 233.02 245.687C233.587 245.187 233.87 244.493 233.87 243.604C233.87 241.683 232.888 240.701 230.925 240.659H227.091ZM227.091 238.298H230.239C231.238 238.298 232.017 238.074 232.575 237.625C233.142 237.168 233.426 236.525 233.426 235.695C233.426 234.781 233.163 234.121 232.639 233.715C232.122 233.309 231.314 233.105 230.214 233.105H227.091V238.298ZM248.305 247.654C247.399 248.721 246.113 249.254 244.445 249.254C242.956 249.254 241.826 248.818 241.056 247.946C240.294 247.075 239.913 245.813 239.913 244.163V235.264H242.998V244.125C242.998 245.868 243.722 246.74 245.169 246.74C246.667 246.74 247.678 246.203 248.203 245.128V235.264H251.288V249H248.381L248.305 247.654ZM262.13 245.268C262.13 244.717 261.901 244.299 261.444 244.011C260.996 243.723 260.247 243.469 259.197 243.249C258.148 243.029 257.272 242.75 256.569 242.411C255.029 241.666 254.259 240.587 254.259 239.174C254.259 237.989 254.758 236.999 255.757 236.203C256.756 235.408 258.025 235.01 259.565 235.01C261.207 235.01 262.532 235.416 263.539 236.229C264.555 237.041 265.062 238.095 265.062 239.39H261.978C261.978 238.797 261.757 238.306 261.317 237.917C260.877 237.519 260.293 237.32 259.565 237.32C258.888 237.32 258.334 237.477 257.902 237.79C257.479 238.103 257.268 238.522 257.268 239.047C257.268 239.521 257.466 239.889 257.864 240.151C258.262 240.414 259.066 240.68 260.276 240.951C261.487 241.214 262.435 241.531 263.12 241.903C263.814 242.267 264.326 242.707 264.656 243.224C264.995 243.74 265.164 244.366 265.164 245.103C265.164 246.338 264.652 247.341 263.628 248.111C262.604 248.873 261.262 249.254 259.604 249.254C258.478 249.254 257.475 249.051 256.595 248.645C255.715 248.238 255.029 247.68 254.538 246.969C254.047 246.258 253.802 245.492 253.802 244.671H256.798C256.84 245.399 257.115 245.962 257.623 246.359C258.131 246.749 258.804 246.943 259.642 246.943C260.454 246.943 261.072 246.791 261.495 246.486C261.918 246.173 262.13 245.767 262.13 245.268ZM275.562 245.268C275.562 244.717 275.333 244.299 274.876 244.011C274.427 243.723 273.678 243.469 272.629 243.249C271.579 243.029 270.703 242.75 270.001 242.411C268.461 241.666 267.69 240.587 267.69 239.174C267.69 237.989 268.19 236.999 269.188 236.203C270.187 235.408 271.457 235.01 272.997 235.01C274.639 235.01 275.964 235.416 276.971 236.229C277.986 237.041 278.494 238.095 278.494 239.39H275.409C275.409 238.797 275.189 238.306 274.749 237.917C274.309 237.519 273.725 237.32 272.997 237.32C272.32 237.32 271.766 237.477 271.334 237.79C270.911 238.103 270.699 238.522 270.699 239.047C270.699 239.521 270.898 239.889 271.296 240.151C271.694 240.414 272.498 240.68 273.708 240.951C274.918 241.214 275.866 241.531 276.552 241.903C277.246 242.267 277.758 242.707 278.088 243.224C278.426 243.74 278.596 244.366 278.596 245.103C278.596 246.338 278.084 247.341 277.06 248.111C276.035 248.873 274.694 249.254 273.035 249.254C271.91 249.254 270.907 249.051 270.026 248.645C269.146 248.238 268.461 247.68 267.97 246.969C267.479 246.258 267.233 245.492 267.233 244.671H270.229C270.272 245.399 270.547 245.962 271.055 246.359C271.562 246.749 272.235 246.943 273.073 246.943C273.886 246.943 274.504 246.791 274.927 246.486C275.35 246.173 275.562 245.767 275.562 245.268ZM284.575 249H281.49V235.264H284.575V249ZM281.3 231.696C281.3 231.222 281.448 230.829 281.744 230.516C282.049 230.202 282.48 230.046 283.039 230.046C283.598 230.046 284.029 230.202 284.334 230.516C284.639 230.829 284.791 231.222 284.791 231.696C284.791 232.162 284.639 232.551 284.334 232.864C284.029 233.169 283.598 233.321 283.039 233.321C282.48 233.321 282.049 233.169 281.744 232.864C281.448 232.551 281.3 232.162 281.3 231.696ZM290.809 235.264L290.897 236.851C291.913 235.623 293.246 235.01 294.896 235.01C297.757 235.01 299.213 236.647 299.264 239.923V249H296.179V240.101C296.179 239.229 295.988 238.586 295.607 238.171C295.235 237.748 294.621 237.536 293.767 237.536C292.522 237.536 291.596 238.099 290.986 239.225V249H287.901V235.264H290.809ZM308.468 249.254C306.513 249.254 304.926 248.64 303.707 247.413C302.497 246.177 301.892 244.535 301.892 242.487V242.106C301.892 240.735 302.154 239.512 302.679 238.438C303.212 237.354 303.957 236.512 304.913 235.911C305.869 235.31 306.936 235.01 308.112 235.01C309.983 235.01 311.426 235.606 312.441 236.8C313.465 237.993 313.978 239.682 313.978 241.865V243.109H305.002C305.095 244.243 305.472 245.141 306.132 245.801C306.8 246.461 307.638 246.791 308.646 246.791C310.059 246.791 311.21 246.22 312.099 245.077L313.762 246.664C313.212 247.485 312.475 248.124 311.553 248.581C310.639 249.03 309.61 249.254 308.468 249.254ZM308.1 237.485C307.253 237.485 306.568 237.782 306.043 238.374C305.527 238.966 305.197 239.792 305.053 240.85H310.931V240.621C310.863 239.589 310.588 238.81 310.105 238.285C309.623 237.752 308.954 237.485 308.1 237.485ZM324.083 245.268C324.083 244.717 323.854 244.299 323.397 244.011C322.949 243.723 322.2 243.469 321.15 243.249C320.101 243.029 319.225 242.75 318.522 242.411C316.982 241.666 316.212 240.587 316.212 239.174C316.212 237.989 316.711 236.999 317.71 236.203C318.709 235.408 319.978 235.01 321.519 235.01C323.16 235.01 324.485 235.416 325.492 236.229C326.508 237.041 327.016 238.095 327.016 239.39H323.931C323.931 238.797 323.711 238.306 323.271 237.917C322.83 237.519 322.246 237.32 321.519 237.32C320.841 237.32 320.287 237.477 319.855 237.79C319.432 238.103 319.221 238.522 319.221 239.047C319.221 239.521 319.42 239.889 319.817 240.151C320.215 240.414 321.019 240.68 322.229 240.951C323.44 241.214 324.388 241.531 325.073 241.903C325.767 242.267 326.279 242.707 326.609 243.224C326.948 243.74 327.117 244.366 327.117 245.103C327.117 246.338 326.605 247.341 325.581 248.111C324.557 248.873 323.215 249.254 321.557 249.254C320.431 249.254 319.428 249.051 318.548 248.645C317.668 248.238 316.982 247.68 316.491 246.969C316 246.258 315.755 245.492 315.755 244.671H318.751C318.793 245.399 319.068 245.962 319.576 246.359C320.084 246.749 320.757 246.943 321.595 246.943C322.407 246.943 323.025 246.791 323.448 246.486C323.871 246.173 324.083 245.767 324.083 245.268ZM337.515 245.268C337.515 244.717 337.286 244.299 336.829 244.011C336.381 243.723 335.632 243.469 334.582 243.249C333.533 243.029 332.657 242.75 331.954 242.411C330.414 241.666 329.644 240.587 329.644 239.174C329.644 237.989 330.143 236.999 331.142 236.203C332.14 235.408 333.41 235.01 334.95 235.01C336.592 235.01 337.917 235.416 338.924 236.229C339.939 237.041 340.447 238.095 340.447 239.39H337.362C337.362 238.797 337.142 238.306 336.702 237.917C336.262 237.519 335.678 237.32 334.95 237.32C334.273 237.32 333.719 237.477 333.287 237.79C332.864 238.103 332.652 238.522 332.652 239.047C332.652 239.521 332.851 239.889 333.249 240.151C333.647 240.414 334.451 240.68 335.661 240.951C336.871 241.214 337.819 241.531 338.505 241.903C339.199 242.267 339.711 242.707 340.041 243.224C340.38 243.74 340.549 244.366 340.549 245.103C340.549 246.338 340.037 247.341 339.013 248.111C337.989 248.873 336.647 249.254 334.988 249.254C333.863 249.254 332.86 249.051 331.979 248.645C331.099 248.238 330.414 247.68 329.923 246.969C329.432 246.258 329.187 245.492 329.187 244.671H332.183C332.225 245.399 332.5 245.962 333.008 246.359C333.516 246.749 334.188 246.943 335.026 246.943C335.839 246.943 336.457 246.791 336.88 246.486C337.303 246.173 337.515 245.767 337.515 245.268ZM364.683 249H361.471L353.231 235.886V249H350.02V230.516H353.231L361.496 243.681V230.516H364.683V249ZM376.388 249C376.252 248.738 376.134 248.31 376.032 247.718C375.05 248.742 373.849 249.254 372.427 249.254C371.047 249.254 369.922 248.86 369.05 248.073C368.178 247.286 367.742 246.313 367.742 245.153C367.742 243.689 368.284 242.568 369.367 241.789C370.459 241.002 372.016 240.608 374.039 240.608H375.931V239.707C375.931 238.996 375.732 238.429 375.334 238.006C374.936 237.574 374.331 237.358 373.519 237.358C372.816 237.358 372.241 237.536 371.792 237.892C371.343 238.239 371.119 238.683 371.119 239.225H368.034C368.034 238.471 368.284 237.769 368.783 237.117C369.283 236.457 369.96 235.941 370.814 235.568C371.678 235.196 372.638 235.01 373.696 235.01C375.304 235.01 376.587 235.416 377.543 236.229C378.499 237.033 378.99 238.167 379.016 239.631V245.826C379.016 247.062 379.189 248.048 379.536 248.784V249H376.388ZM372.998 246.778C373.607 246.778 374.179 246.63 374.712 246.334C375.254 246.038 375.66 245.64 375.931 245.141V242.551H374.268C373.125 242.551 372.266 242.75 371.69 243.147C371.115 243.545 370.827 244.108 370.827 244.836C370.827 245.428 371.022 245.902 371.411 246.258C371.809 246.605 372.338 246.778 372.998 246.778ZM385.147 235.264L385.236 236.698C386.201 235.573 387.521 235.01 389.197 235.01C391.034 235.01 392.291 235.712 392.968 237.117C393.966 235.712 395.371 235.01 397.183 235.01C398.698 235.01 399.823 235.429 400.56 236.267C401.304 237.104 401.685 238.34 401.702 239.974V249H398.617V240.062C398.617 239.191 398.427 238.552 398.046 238.146C397.665 237.739 397.035 237.536 396.154 237.536C395.452 237.536 394.876 237.727 394.428 238.107C393.988 238.48 393.679 238.971 393.501 239.58L393.514 249H390.429V239.961C390.386 238.344 389.561 237.536 387.953 237.536C386.717 237.536 385.841 238.04 385.325 239.047V249H382.24V235.264H385.147ZM410.919 249.254C408.964 249.254 407.377 248.64 406.158 247.413C404.948 246.177 404.343 244.535 404.343 242.487V242.106C404.343 240.735 404.605 239.512 405.13 238.438C405.663 237.354 406.408 236.512 407.364 235.911C408.321 235.31 409.387 235.01 410.563 235.01C412.434 235.01 413.877 235.606 414.893 236.8C415.917 237.993 416.429 239.682 416.429 241.865V243.109H407.453C407.546 244.243 407.923 245.141 408.583 245.801C409.252 246.461 410.09 246.791 411.097 246.791C412.51 246.791 413.661 246.22 414.55 245.077L416.213 246.664C415.663 247.485 414.926 248.124 414.004 248.581C413.09 249.03 412.062 249.254 410.919 249.254ZM410.551 237.485C409.704 237.485 409.019 237.782 408.494 238.374C407.978 238.966 407.648 239.792 407.504 240.85H413.382V240.621C413.314 239.589 413.039 238.81 412.557 238.285C412.074 237.752 411.406 237.485 410.551 237.485Z" fill="white"/>
</g>
<defs>
<clipPath id="clip0">
<rect width="654" height="527" fill="white"/>
</clipPath>
</defs>
</svg>
